<?xml version="1.0" encoding="UTF-8"?>
<svg width="31px" height="31px" viewBox="0 0 31 31" version="1.1" xmlns="http://www.w3.org/2000/svg" xmlns:xlink="http://www.w3.org/1999/xlink">
    <!-- Generator: Sketch 45.2 (43514) - http://www.bohemiancoding.com/sketch -->
    <title>Shape</title>
    <desc>Created with Sketch.</desc>
    <defs></defs>
    <g id="Symbols" stroke="none" stroke-width="1" fill="none" fill-rule="evenodd">
        <g id="Footer" transform="translate(-1199.000000, -72.000000)" fill="#AAB4D1">
            <g id="social-media">
                <g transform="translate(1142.000000, 72.000000)">
                    <g id="facebook3" transform="translate(57.000000, 0.000000)">
                        <path d="M27.1245449,0 L3.87545508,0 C1.74386377,0 0,1.74204345 0,3.87363476 L0,27.1227246 C0,29.2543159 1.74386377,30.9981797 3.87545508,30.9981797 L15.6347035,30.9981797 L15.6347035,19.8833235 L11.9212566,19.8833235 L11.9212566,15.0412801 L15.6347035,15.0412801 L15.6347035,12.6147974 C15.6347035,8.87586612 18.3961245,5.94697592 21.9202584,5.94697592 L25.3424545,5.94697592 L25.3424545,11.4152085 L22.2806812,11.4152085 C21.4797416,11.4152085 21.2449207,11.8757487 21.2449207,12.5128597 L21.2449207,15.0431004 L25.3424545,15.0431004 L25.3424545,19.8851439 L21.2449207,19.8851439 L21.2449207,31 L27.1245449,31 C29.2561362,31 31,29.2561362 31,27.1245449 L31,3.87181445 C31,1.74204345 29.2561362,0 27.1245449,0 L27.1245449,0 Z" id="Shape"></path>
                    </g>
                </g>
            </g>
        </g>
    </g>
</svg>