<?xml version="1.0" encoding="UTF-8"?>
<svg width="145px" height="90px" viewBox="0 0 145 90" version="1.1" xmlns="http://www.w3.org/2000/svg" xmlns:xlink="http://www.w3.org/1999/xlink">
    <!-- Generator: Sketch 45.2 (43514) - http://www.bohemiancoding.com/sketch -->
    <title>graphic</title>
    <desc>Created with Sketch.</desc>
    <defs>
        <rect id="path-1" x="0" y="0" width="340" height="460" rx="3"></rect>
    </defs>
    <g id="Designs" stroke="none" stroke-width="1" fill="none" fill-rule="evenodd">
        <g id="EI---Homepage---Design" transform="translate(-238.000000, -1193.000000)">
            <g id="Sidebar" transform="translate(140.000000, 460.000000)">
                <g id="formblock" transform="translate(0.000000, 712.000000)">
                    <mask id="mask-2" fill="white">
                        <use xlink:href="#path-1"></use>
                    </mask>
                    <use id="Rectangle-13" fill="#2F3D65" xlink:href="#path-1"></use>
                    <g id="graphic" mask="url(#mask-2)">
                        <g transform="translate(98.000000, 21.000000)">
                            <path d="M60.6,58.2258065 L60.6,50.9677419 L65.4,50.9677419 L65.4,58.2258065 L70.2,58.2258065 L70.2,63.0645161 L55.8,63.0645161 L55.8,58.2258065 L60.6,58.2258065 Z M65.5815817,46.1290323 L67.8045568,46.1290323 C71.7783452,46.1290323 75,49.3704835 75,53.3750641 L75,67.9133236 C75,74.5858481 69.6193778,80 63,80 C56.3739141,80 51,74.5874222 51,67.9133236 L51,53.3750641 C51,49.3722495 54.2220461,46.1290323 58.1954432,46.1290323 L60.7434299,46.1290323 C61.6731357,37.4378887 66.8809269,29.9087164 75.026577,30.0008365 C83.8305905,30.1004022 89.4471697,39.2134292 89.4471697,48.3565459 C89.4471697,52.3101818 90.8566577,55.6874837 96.6222743,55.742149 C97.9477001,55.7547157 99.0121969,56.8624556 98.9998944,58.2163553 C98.987592,59.570255 97.903149,60.6576202 96.5777233,60.6450535 C88.50622,60.5685254 84.6471716,55.5823657 84.6471716,48.3565459 C84.6471716,41.5664614 80.5797975,34.9670547 74.9734382,34.9036517 C70.0319996,34.8477684 66.424386,39.8978502 65.5815817,46.1290323 Z M55.8,53.3750641 L55.8,67.9133236 C55.8,71.9141412 59.0239538,75.1612903 63,75.1612903 C66.9703646,75.1612903 70.2,71.9115292 70.2,67.9133236 L70.2,53.3750641 C70.2,52.0448959 69.1294245,50.9677419 67.8045568,50.9677419 L58.1954432,50.9677419 C56.8714208,50.9677419 55.8,52.0462027 55.8,53.3750641 Z" id="Combined-Shape" fill="#FFF477"></path>
                            <path d="M122.771926,25.6704167 C123.076025,25.9745143 123.076025,26.4677859 122.771926,26.7718835 C122.61979,26.9240189 122.420576,27 122.22119,27 C122.021803,27 121.82259,26.9240189 121.670454,26.7718835 L118.5,23.6014452 L115.329546,26.7718835 C115.17741,26.9240189 114.978197,27 114.77881,27 C114.579424,27 114.38021,26.9240189 114.228074,26.7718835 C113.923975,26.4677859 113.923975,25.9745143 114.228074,25.6704167 L117.398528,22.4999784 L114.228074,19.32954 C113.923975,19.0254424 113.923975,18.5321708 114.228074,18.2280732 C114.532346,17.9239756 115.025274,17.9239756 115.329546,18.2280732 L118.5,21.3985115 L121.670454,18.2280732 C121.974726,17.9239756 122.467654,17.9239756 122.771926,18.2280732 C123.076025,18.5321708 123.076025,19.0254424 122.771926,19.32954 L119.601472,22.4999784 L122.771926,25.6704167 Z" id="cross" fill="#AAB4D1"></path>
                            <path d="M124.771926,83.6704167 C125.076025,83.9745143 125.076025,84.4677859 124.771926,84.7718835 C124.61979,84.9240189 124.420576,85 124.22119,85 C124.021803,85 123.82259,84.9240189 123.670454,84.7718835 L120.5,81.6014452 L117.329546,84.7718835 C117.17741,84.9240189 116.978197,85 116.77881,85 C116.579424,85 116.38021,84.9240189 116.228074,84.7718835 C115.923975,84.4677859 115.923975,83.9745143 116.228074,83.6704167 L119.398528,80.4999784 L116.228074,77.32954 C115.923975,77.0254424 115.923975,76.5321708 116.228074,76.2280732 C116.532346,75.9239756 117.025274,75.9239756 117.329546,76.2280732 L120.5,79.3985115 L123.670454,76.2280732 C123.974726,75.9239756 124.467654,75.9239756 124.771926,76.2280732 C125.076025,76.5321708 125.076025,77.0254424 124.771926,77.32954 L121.601472,80.4999784 L124.771926,83.6704167 Z" id="cross" fill="#AAB4D1"></path>
                            <path d="M132.923975,63.5568056 C133.025342,63.6581714 133.025342,63.8225953 132.923975,63.9239612 C132.873263,63.974673 132.806859,64 132.740397,64 C132.673934,64 132.60753,63.974673 132.556818,63.9239612 L131.5,62.8671484 L130.443182,63.9239612 C130.39247,63.974673 130.326066,64 130.259603,64 C130.193141,64 130.126737,63.974673 130.076025,63.9239612 C129.974658,63.8225953 129.974658,63.6581714 130.076025,63.5568056 L131.132843,62.4999928 L130.076025,61.44318 C129.974658,61.3418141 129.974658,61.1773903 130.076025,61.0760244 C130.177449,60.9746585 130.341758,60.9746585 130.443182,61.0760244 L131.5,62.1328372 L132.556818,61.0760244 C132.658242,60.9746585 132.822551,60.9746585 132.923975,61.0760244 C133.025342,61.1773903 133.025342,61.3418141 132.923975,61.44318 L131.867157,62.4999928 L132.923975,63.5568056 Z" id="cross" fill="#AAB4D1"></path>
                            <path d="M125.923975,42.5568056 C126.025342,42.6581714 126.025342,42.8225953 125.923975,42.9239612 C125.873263,42.974673 125.806859,43 125.740397,43 C125.673934,43 125.60753,42.974673 125.556818,42.9239612 L124.5,41.8671484 L123.443182,42.9239612 C123.39247,42.974673 123.326066,43 123.259603,43 C123.193141,43 123.126737,42.974673 123.076025,42.9239612 C122.974658,42.8225953 122.974658,42.6581714 123.076025,42.5568056 L124.132843,41.4999928 L123.076025,40.44318 C122.974658,40.3418141 122.974658,40.1773903 123.076025,40.0760244 C123.177449,39.9746585 123.341758,39.9746585 123.443182,40.0760244 L124.5,41.1328372 L125.556818,40.0760244 C125.658242,39.9746585 125.822551,39.9746585 125.923975,40.0760244 C126.025342,40.1773903 126.025342,40.3418141 125.923975,40.44318 L124.867157,41.4999928 L125.923975,42.5568056 Z" id="cross" fill="#AAB4D1"></path>
                            <path d="M144.923975,36.5568056 C145.025342,36.6581714 145.025342,36.8225953 144.923975,36.9239612 C144.873263,36.974673 144.806859,37 144.740397,37 C144.673934,37 144.60753,36.974673 144.556818,36.9239612 L143.5,35.8671484 L142.443182,36.9239612 C142.39247,36.974673 142.326066,37 142.259603,37 C142.193141,37 142.126737,36.974673 142.076025,36.9239612 C141.974658,36.8225953 141.974658,36.6581714 142.076025,36.5568056 L143.132843,35.4999928 L142.076025,34.44318 C141.974658,34.3418141 141.974658,34.1773903 142.076025,34.0760244 C142.177449,33.9746585 142.341758,33.9746585 142.443182,34.0760244 L143.5,35.1328372 L144.556818,34.0760244 C144.658242,33.9746585 144.822551,33.9746585 144.923975,34.0760244 C145.025342,34.1773903 145.025342,34.3418141 144.923975,34.44318 L143.867157,35.4999928 L144.923975,36.5568056 Z" id="cross" fill="#AAB4D1"></path>
                            <path d="M97.9239752,4.55680556 C98.0253416,4.65817143 98.0253416,4.8225953 97.9239752,4.92396117 C97.8732632,4.97467296 97.8068587,5 97.7403965,5 C97.6739344,5 97.6075299,4.97467296 97.5568179,4.92396117 L96.5,3.8671484 L95.4431821,4.92396117 C95.3924701,4.97467296 95.3260656,5 95.2596035,5 C95.1931413,5 95.1267368,4.97467296 95.0760248,4.92396117 C94.9746584,4.8225953 94.9746584,4.65817143 95.0760248,4.55680556 L96.1328426,3.49999279 L95.0760248,2.44318002 C94.9746584,2.34181414 94.9746584,2.17739028 95.0760248,2.0760244 C95.1774488,1.97465853 95.3417581,1.97465853 95.4431821,2.0760244 L96.5,3.13283718 L97.5568179,2.0760244 C97.6582419,1.97465853 97.8225512,1.97465853 97.9239752,2.0760244 C98.0253416,2.17739028 98.0253416,2.34181414 97.9239752,2.44318002 L96.8671574,3.49999279 L97.9239752,4.55680556 Z" id="cross" fill="#AAB4D1"></path>
                            <path d="M105.923975,25.5568056 C106.025342,25.6581714 106.025342,25.8225953 105.923975,25.9239612 C105.873263,25.974673 105.806859,26 105.740397,26 C105.673934,26 105.60753,25.974673 105.556818,25.9239612 L104.5,24.8671484 L103.443182,25.9239612 C103.39247,25.974673 103.326066,26 103.259603,26 C103.193141,26 103.126737,25.974673 103.076025,25.9239612 C102.974658,25.8225953 102.974658,25.6581714 103.076025,25.5568056 L104.132843,24.4999928 L103.076025,23.44318 C102.974658,23.3418141 102.974658,23.1773903 103.076025,23.0760244 C103.177449,22.9746585 103.341758,22.9746585 103.443182,23.0760244 L104.5,24.1328372 L105.556818,23.0760244 C105.658242,22.9746585 105.822551,22.9746585 105.923975,23.0760244 C106.025342,23.1773903 106.025342,23.3418141 105.923975,23.44318 L104.867157,24.4999928 L105.923975,25.5568056 Z" id="cross" fill="#AAB4D1"></path>
                            <path d="M72.9239752,9.55680556 C73.0253416,9.65817143 73.0253416,9.8225953 72.9239752,9.92396117 C72.8732632,9.97467296 72.8068587,10 72.7403965,10 C72.6739344,10 72.6075299,9.97467296 72.5568179,9.92396117 L71.5,8.8671484 L70.4431821,9.92396117 C70.3924701,9.97467296 70.3260656,10 70.2596035,10 C70.1931413,10 70.1267368,9.97467296 70.0760248,9.92396117 C69.9746584,9.8225953 69.9746584,9.65817143 70.0760248,9.55680556 L71.1328426,8.49999279 L70.0760248,7.44318002 C69.9746584,7.34181414 69.9746584,7.17739028 70.0760248,7.0760244 C70.1774488,6.97465853 70.3417581,6.97465853 70.4431821,7.0760244 L71.5,8.13283718 L72.5568179,7.0760244 C72.6582419,6.97465853 72.8225512,6.97465853 72.9239752,7.0760244 C73.0253416,7.17739028 73.0253416,7.34181414 72.9239752,7.44318002 L71.8671574,8.49999279 L72.9239752,9.55680556 Z" id="cross" fill="#AAB4D1"></path>
                            <path d="M52.9239752,2.55680556 C53.0253416,2.65817143 53.0253416,2.8225953 52.9239752,2.92396117 C52.8732632,2.97467296 52.8068587,3 52.7403965,3 C52.6739344,3 52.6075299,2.97467296 52.5568179,2.92396117 L51.5,1.8671484 L50.4431821,2.92396117 C50.3924701,2.97467296 50.3260656,3 50.2596035,3 C50.1931413,3 50.1267368,2.97467296 50.0760248,2.92396117 C49.9746584,2.8225953 49.9746584,2.65817143 50.0760248,2.55680556 L51.1328426,1.49999279 L50.0760248,0.443180015 C49.9746584,0.341814143 49.9746584,0.177390276 50.0760248,0.076024404 C50.1774488,-0.025341468 50.3417581,-0.025341468 50.4431821,0.076024404 L51.5,1.13283718 L52.5568179,0.076024404 C52.6582419,-0.025341468 52.8225512,-0.025341468 52.9239752,0.076024404 C53.0253416,0.177390276 53.0253416,0.341814143 52.9239752,0.443180015 L51.8671574,1.49999279 L52.9239752,2.55680556 Z" id="cross" fill="#AAB4D1"></path>
                            <path d="M19.9239752,16.5568056 C20.0253416,16.6581714 20.0253416,16.8225953 19.9239752,16.9239612 C19.8732632,16.974673 19.8068587,17 19.7403965,17 C19.6739344,17 19.6075299,16.974673 19.5568179,16.9239612 L18.5,15.8671484 L17.4431821,16.9239612 C17.3924701,16.974673 17.3260656,17 17.2596035,17 C17.1931413,17 17.1267368,16.974673 17.0760248,16.9239612 C16.9746584,16.8225953 16.9746584,16.6581714 17.0760248,16.5568056 L18.1328426,15.4999928 L17.0760248,14.44318 C16.9746584,14.3418141 16.9746584,14.1773903 17.0760248,14.0760244 C17.1774488,13.9746585 17.3417581,13.9746585 17.4431821,14.0760244 L18.5,15.1328372 L19.5568179,14.0760244 C19.6582419,13.9746585 19.8225512,13.9746585 19.9239752,14.0760244 C20.0253416,14.1773903 20.0253416,14.3418141 19.9239752,14.44318 L18.8671574,15.4999928 L19.9239752,16.5568056 Z" id="cross" fill="#AAB4D1"></path>
                            <path d="M2.92397523,36.5568056 C3.02534159,36.6581714 3.02534159,36.8225953 2.92397523,36.9239612 C2.8732632,36.974673 2.80685872,37 2.74039654,37 C2.67393436,37 2.60752988,36.974673 2.55681785,36.9239612 L1.5,35.8671484 L0.443182146,36.9239612 C0.39247012,36.974673 0.326065635,37 0.259603458,37 C0.19314128,37 0.126736796,36.974673 0.0760247695,36.9239612 C-0.0253415898,36.8225953 -0.0253415898,36.6581714 0.0760247695,36.5568056 L1.13284262,35.4999928 L0.0760247695,34.44318 C-0.0253415898,34.3418141 -0.0253415898,34.1773903 0.0760247695,34.0760244 C0.177448822,33.9746585 0.341758094,33.9746585 0.443182146,34.0760244 L1.5,35.1328372 L2.55681785,34.0760244 C2.65824191,33.9746585 2.82255118,33.9746585 2.92397523,34.0760244 C3.02534159,34.1773903 3.02534159,34.3418141 2.92397523,34.44318 L1.86715738,35.4999928 L2.92397523,36.5568056 Z" id="cross" fill="#AAB4D1"></path>
                            <path d="M25.9239752,36.5568056 C26.0253416,36.6581714 26.0253416,36.8225953 25.9239752,36.9239612 C25.8732632,36.974673 25.8068587,37 25.7403965,37 C25.6739344,37 25.6075299,36.974673 25.5568179,36.9239612 L24.5,35.8671484 L23.4431821,36.9239612 C23.3924701,36.974673 23.3260656,37 23.2596035,37 C23.1931413,37 23.1267368,36.974673 23.0760248,36.9239612 C22.9746584,36.8225953 22.9746584,36.6581714 23.0760248,36.5568056 L24.1328426,35.4999928 L23.0760248,34.44318 C22.9746584,34.3418141 22.9746584,34.1773903 23.0760248,34.0760244 C23.1774488,33.9746585 23.3417581,33.9746585 23.4431821,34.0760244 L24.5,35.1328372 L25.5568179,34.0760244 C25.6582419,33.9746585 25.8225512,33.9746585 25.9239752,34.0760244 C26.0253416,34.1773903 26.0253416,34.3418141 25.9239752,34.44318 L24.8671574,35.4999928 L25.9239752,36.5568056 Z" id="cross" fill="#AAB4D1"></path>
                            <path d="M6.92397523,75.5568056 C7.02534159,75.6581714 7.02534159,75.8225953 6.92397523,75.9239612 C6.8732632,75.974673 6.80685872,76 6.74039654,76 C6.67393436,76 6.60752988,75.974673 6.55681785,75.9239612 L5.5,74.8671484 L4.44318215,75.9239612 C4.39247012,75.974673 4.32606564,76 4.25960346,76 C4.19314128,76 4.1267368,75.974673 4.07602477,75.9239612 C3.97465841,75.8225953 3.97465841,75.6581714 4.07602477,75.5568056 L5.13284262,74.4999928 L4.07602477,73.44318 C3.97465841,73.3418141 3.97465841,73.1773903 4.07602477,73.0760244 C4.17744882,72.9746585 4.34175809,72.9746585 4.44318215,73.0760244 L5.5,74.1328372 L6.55681785,73.0760244 C6.65824191,72.9746585 6.82255118,72.9746585 6.92397523,73.0760244 C7.02534159,73.1773903 7.02534159,73.3418141 6.92397523,73.44318 L5.86715738,74.4999928 L6.92397523,75.5568056 Z" id="cross" fill="#AAB4D1"></path>
                            <path d="M25.9239752,89.5568056 C26.0253416,89.6581714 26.0253416,89.8225953 25.9239752,89.9239612 C25.8732632,89.974673 25.8068587,90 25.7403965,90 C25.6739344,90 25.6075299,89.974673 25.5568179,89.9239612 L24.5,88.8671484 L23.4431821,89.9239612 C23.3924701,89.974673 23.3260656,90 23.2596035,90 C23.1931413,90 23.1267368,89.974673 23.0760248,89.9239612 C22.9746584,89.8225953 22.9746584,89.6581714 23.0760248,89.5568056 L24.1328426,88.4999928 L23.0760248,87.44318 C22.9746584,87.3418141 22.9746584,87.1773903 23.0760248,87.0760244 C23.1774488,86.9746585 23.3417581,86.9746585 23.4431821,87.0760244 L24.5,88.1328372 L25.5568179,87.0760244 C25.6582419,86.9746585 25.8225512,86.9746585 25.9239752,87.0760244 C26.0253416,87.1773903 26.0253416,87.3418141 25.9239752,87.44318 L24.8671574,88.4999928 L25.9239752,89.5568056 Z" id="cross" fill="#AAB4D1"></path>
                            <path d="M18.7719257,61.6704167 C19.0760248,61.9745143 19.0760248,62.4677859 18.7719257,62.7718835 C18.6197896,62.9240189 18.4205762,63 18.2211896,63 C18.0218031,63 17.8225896,62.9240189 17.6704536,62.7718835 L14.5,59.6014452 L11.3295464,62.7718835 C11.1774104,62.9240189 10.9781969,63 10.7788104,63 C10.5794238,63 10.3802104,62.9240189 10.2280743,62.7718835 C9.92397523,62.4677859 9.92397523,61.9745143 10.2280743,61.6704167 L13.3985279,58.4999784 L10.2280743,55.32954 C9.92397523,55.0254424 9.92397523,54.5321708 10.2280743,54.2280732 C10.5323465,53.9239756 11.0252743,53.9239756 11.3295464,54.2280732 L14.5,57.3985115 L17.6704536,54.2280732 C17.9747257,53.9239756 18.4676535,53.9239756 18.7719257,54.2280732 C19.0760248,54.5321708 19.0760248,55.0254424 18.7719257,55.32954 L15.6014721,58.4999784 L18.7719257,61.6704167 Z" id="cross" fill="#AAB4D1"></path>
                            <path d="M47.7719257,17.6704167 C48.0760248,17.9745143 48.0760248,18.4677859 47.7719257,18.7718835 C47.6197896,18.9240189 47.4205762,19 47.2211896,19 C47.0218031,19 46.8225896,18.9240189 46.6704536,18.7718835 L43.5,15.6014452 L40.3295464,18.7718835 C40.1774104,18.9240189 39.9781969,19 39.7788104,19 C39.5794238,19 39.3802104,18.9240189 39.2280743,18.7718835 C38.9239752,18.4677859 38.9239752,17.9745143 39.2280743,17.6704167 L42.3985279,14.4999784 L39.2280743,11.32954 C38.9239752,11.0254424 38.9239752,10.5321708 39.2280743,10.2280732 C39.5323465,9.9239756 40.0252743,9.9239756 40.3295464,10.2280732 L43.5,13.3985115 L46.6704536,10.2280732 C46.9747257,9.9239756 47.4676535,9.9239756 47.7719257,10.2280732 C48.0760248,10.5321708 48.0760248,11.0254424 47.7719257,11.32954 L44.6014721,14.4999784 L47.7719257,17.6704167 Z" id="cross" fill="#AAB4D1"></path>
                        </g>
                    </g>
                </g>
            </g>
        </g>
    </g>
</svg>