<?xml version="1.0" encoding="UTF-8"?>
<svg width="100px" height="72px" viewBox="0 0 100 72" version="1.1" xmlns="http://www.w3.org/2000/svg" xmlns:xlink="http://www.w3.org/1999/xlink">
    <!-- Generator: Sketch 47.1 (45422) - http://www.bohemiancoding.com/sketch -->
    <title>Group</title>
    <desc>Created with Sketch.</desc>
    <defs></defs>
    <g id="Page-1" stroke="none" stroke-width="1" fill="none" fill-rule="evenodd">
        <g id="noun_22003_cc" fill-rule="nonzero" fill="#3E3E3E">
            <g id="Group">
                <path d="M48,24.43 C48,21.942 47.622,19.541 46.918,17.283 C43.876,7.519 34.765,0.43 24,0.43 C19.192,0.43 14.716,1.845 10.961,4.28 C4.364,8.556 0,15.983 0,24.43 C0,37.156 9.904,47.567 22.425,48.378 C19.859,57.735 14.402,65.832 7.12,71.569 C29.868,70.521 48,51.074 48,27.237 C48,26.705 47.988,26.175 47.971,25.646 C47.99,25.245 48,24.839 48,24.43 Z" id="Shape"></path>
                <path d="M100,24.43 C100,21.942 99.621,19.541 98.918,17.283 C95.877,7.519 86.766,0.43 76,0.43 C71.191,0.43 66.717,1.845 62.961,4.28 C56.365,8.556 52,15.983 52,24.43 C52,37.156 61.904,47.567 74.426,48.378 C71.86,57.735 66.403,65.832 59.121,71.569 C81.869,70.521 100,51.074 100,27.237 C100,26.705 99.988,26.175 99.971,25.646 C99.99,25.245 100,24.839 100,24.43 Z" id="Shape"></path>
            </g>
        </g>
    </g>
</svg>