<?xml version="1.0" encoding="UTF-8"?>
<svg width="10px" height="17px" viewBox="0 0 10 17" version="1.1" xmlns="http://www.w3.org/2000/svg" xmlns:xlink="http://www.w3.org/1999/xlink">
    <!-- Generator: Sketch 45.2 (43514) - http://www.bohemiancoding.com/sketch -->
    <title>Shape</title>
    <desc>Created with Sketch.</desc>
    <defs></defs>
    <g id="Designs" stroke="none" stroke-width="1" fill="none" fill-rule="evenodd">
        <g id="EI---Article---Design-" transform="translate(-1334.000000, -1010.000000)" fill="#7B7B7B">
            <g id="social-share-block" transform="translate(1320.000000, 860.000000)">
                <path d="M19.6108036,150 L19.6108036,154.296231 L23.4617293,154.296231 L23.4617293,156.965132 L19.6108036,156.965132 L19.6108036,161.324337 C19.6108036,162.310931 19.6604314,162.94367 19.759687,163.221556 C19.8589425,163.50344 20.0440924,163.726348 20.3170452,163.893279 C20.674938,164.119186 21.0853216,164.23114 21.5481962,164.23114 C22.3699179,164.23114 23.1868677,163.950256 24,163.391486 L24,166.074381 C23.3061653,166.414241 22.6791372,166.655142 22.1170071,166.793085 C21.5539225,166.932028 20.9459821,167 20.2931857,167 C19.5497232,167 18.8940638,166.90204 18.3242985,166.706121 C17.7545333,166.508203 17.2677992,166.230317 16.866005,165.866467 C16.4632563,165.503616 16.1826684,165.115776 16.0280588,164.706944 C15.8724948,164.298113 15.7951899,163.705357 15.7951899,162.927677 L15.7951899,156.965132 L14,156.965132 L14,154.559123 C14.639435,154.342212 15.1843863,154.03034 15.6396259,153.626507 C16.0929567,153.221673 16.4594388,152.734874 16.7333461,152.166108 C17.0082077,151.599341 17.1981294,150.876639 17.3021569,150 L19.6108036,150" id="Shape"></path>
            </g>
        </g>
    </g>
</svg>