<?xml version="1.0" encoding="UTF-8"?>
<svg width="32px" height="27px" viewBox="0 0 32 27" version="1.1" xmlns="http://www.w3.org/2000/svg" xmlns:xlink="http://www.w3.org/1999/xlink">
    <!-- Generator: Sketch 45.2 (43514) - http://www.bohemiancoding.com/sketch -->
    <title>Shape</title>
    <desc>Created with Sketch.</desc>
    <defs></defs>
    <g id="Symbols" stroke="none" stroke-width="1" fill="none" fill-rule="evenodd">
        <g id="Footer" transform="translate(-1142.000000, -75.000000)" fill="#AAB4D1">
            <g id="social-media">
                <g transform="translate(1142.000000, 72.000000)">
                    <g id="twitter" transform="translate(0.000000, 3.000000)">
                        <path d="M32,3.19492098 C30.8213207,3.73652573 29.556568,4.10306632 28.2285777,4.26901256 C29.5846737,3.42469269 30.626338,2.08982845 31.1164297,0.497838714 C29.8464072,1.28015669 28.442883,1.84546805 26.946259,2.15183034 C25.7482571,0.82608402 24.0425976,0 22.1524949,0 C18.5268705,0 15.5880771,3.05085776 15.5880771,6.81473727 C15.5880771,7.34904768 15.6460449,7.86876942 15.7584674,8.36843172 C10.3024647,8.08395245 5.46302904,5.37045792 2.22561344,1.24733216 C1.66174452,2.2539511 1.33677334,3.42469269 1.33677334,4.67384844 C1.33677334,7.03903823 2.49612999,9.12339592 4.25800077,10.3470215 C3.18296097,10.3105498 2.16940221,10.0041875 1.28407531,9.49358368 L1.28407531,9.57929218 C1.28407531,12.8836283 3.54833397,15.6354181 6.55036504,16.2627313 C6.00054894,16.4195596 5.41911401,16.501621 4.82186968,16.501621 C4.39852885,16.501621 3.98748422,16.4596785 3.5869792,16.3812644 C4.42312126,19.0874645 6.84723061,21.05876 9.72102981,21.1152911 C7.47433716,22.9425233 4.64269638,24.0330272 1.56688807,24.0330272 C1.03639458,24.0330272 0.514684086,24.0002026 0,23.9363771 C2.90541802,25.8712009 6.35538234,27 10.063567,27 C22.1401987,27 28.7432618,16.6146832 28.7432618,7.60617317 C28.7432618,7.31257598 28.737992,7.01897879 28.7239392,6.7253816 C30.0080145,5.7625287 31.1199429,4.56260975 32,3.19492098 L32,3.19492098 Z" id="Shape"></path>
                    </g>
                </g>
            </g>
        </g>
    </g>
</svg>