<?xml version="1.0" encoding="UTF-8"?>
<svg width="17px" height="14px" viewBox="0 0 17 14" version="1.1" xmlns="http://www.w3.org/2000/svg" xmlns:xlink="http://www.w3.org/1999/xlink">
    <!-- Generator: Sketch 45.2 (43514) - http://www.bohemiancoding.com/sketch -->
    <title>Shape</title>
    <desc>Created with Sketch.</desc>
    <defs></defs>
    <g id="Designs" stroke="none" stroke-width="1" fill="none" fill-rule="evenodd">
        <g id="EI---Article---Design-" transform="translate(-1331.000000, -907.000000)" fill="#7B7B7B">
            <g id="social-share-block" transform="translate(1320.000000, 860.000000)">
                <path d="M25.9973587,49.2133468 C26.7177907,48.776542 27.2705875,48.0839232 27.5300229,47.2588473 C26.855491,47.6643074 26.1101133,47.9575329 25.3148442,48.1162791 C24.6802254,47.4287159 23.7731995,47 22.7693843,47 C20.8435757,47 19.2829724,48.5824065 19.2829724,50.5338726 C19.2829724,50.8109201 19.3119094,51.0808898 19.3717791,51.338726 C16.4740858,51.1911021 13.9046781,49.7856421 12.1834243,47.6461072 C11.883078,48.1698686 11.7114515,48.776542 11.7114515,49.4236603 C11.7114515,50.6491405 12.3271116,51.7310415 13.2630745,52.3660263 C12.6913189,52.3478261 12.1534895,52.1870576 11.6825145,51.9241658 L11.6825145,51.9676441 C11.6825145,53.6804853 12.8838997,55.1092012 14.4814228,55.4327604 C14.1880613,55.5156724 13.8807302,55.5571284 13.5614251,55.5571284 C13.3369138,55.5571284 13.1173916,55.5358948 12.905852,55.4944388 C13.3488877,56.8978766 14.637084,57.9211325 16.1637612,57.9484328 C14.9693608,58.8968655 13.4656336,59.4610718 11.8321888,59.4610718 C11.5508012,59.4610718 11.2724071,59.445905 11,59.4125379 C12.5436403,60.4145602 14.3766508,61 16.3463638,61 C22.7623995,61 26.268768,55.6147624 26.268768,50.9443883 C26.268768,50.7906977 26.2667723,50.6380182 26.2597875,50.487361 C26.9413042,49.9888777 27.5340142,49.3660263 28,48.6572295 C27.3743617,48.9383215 26.7018254,49.1284125 25.9973587,49.2133468 Z" id="Shape"></path>
            </g>
        </g>
    </g>
</svg>