<?xml version="1.0" encoding="UTF-8"?>
<svg width="10px" height="12px" viewBox="0 0 10 12" version="1.1" xmlns="http://www.w3.org/2000/svg" xmlns:xlink="http://www.w3.org/1999/xlink">
    <!-- Generator: Sketch 45.2 (43514) - http://www.bohemiancoding.com/sketch -->
    <title>Combined Shape</title>
    <desc>Created with Sketch.</desc>
    <defs></defs>
    <g id="Designs" stroke="none" stroke-width="1" fill="none" fill-rule="evenodd">
        <g id="EI---Homepage---Design" transform="translate(-169.000000, -588.000000)">
            <g id="Sidebar" transform="translate(140.000000, 460.000000)">
                <g id="article/podcast-listing">
                    <g id="item" transform="translate(0.000000, 102.000000)">
                        <g id="article-tag">
                            <rect id="Rectangle-12" fill="#F9F9F9" x="0" y="0" width="340" height="155"></rect>
                            <rect id="Rectangle-2" fill="#2F3D65" x="20" y="22" width="75" height="20" rx="1.5"></rect>
                            <path d="M30.2471691,26 L34.8142443,26 C34.9866874,26 35.2261231,26.0956931 35.3458357,26.2106602 L38.7806444,29.5093105 C38.9017911,29.6256549 39,29.8567778 39,30.019553 L39,36.8004372 C39,37.4629374 38.4409289,38 37.7486695,38 L30.2513305,38 C29.5602398,38 29,37.4610726 29,36.7999923 L29,27.2000077 C29,26.5372617 29.5599254,26 30.2471691,26 Z M30.0030184,36.9995367 C30.0030184,36.9983775 37.9985412,36.9995446 37.9985412,36.9995446 C38.0003739,36.9995446 37.9999597,30.1248577 37.9999597,30.1248577 L34.6679009,27 L30,27 C30.0031709,27 30.0030184,36.9995367 30.0030184,36.9995367 Z M33,31.370437 L33,27 L34.25,27 L34.25,30.7408739 L38,30.7408739 L38,32 L33.625,32 C33.279822,32 33,31.718135 33,31.370437 Z M31.5,34 L36.5,34 L36.5,34 C36.7761424,34 37,34.2238576 37,34.5 C37,34.7761424 36.7761424,35 36.5,35 L31.5,35 C31.2238576,35 31,34.7761424 31,34.5 C31,34.2238576 31.2238576,34 31.5,34 L31.5,34 Z M31.5,33 L34.5,33 C34.7761424,33 35,33.2238576 35,33.5 C35,33.7761424 34.7761424,34 34.5,34 L31.5,34 C31.2238576,34 31,33.7761424 31,33.5 C31,33.2238576 31.2238576,33 31.5,33 Z" id="Combined-Shape" fill="#FFFFFF"></path>
                        </g>
                    </g>
                </g>
            </g>
        </g>
    </g>
</svg>