<?xml version="1.0" encoding="UTF-8"?>
<svg width="18px" height="18px" viewBox="0 0 18 18" version="1.1" xmlns="http://www.w3.org/2000/svg" xmlns:xlink="http://www.w3.org/1999/xlink">
    <!-- Generator: Sketch 45.2 (43514) - http://www.bohemiancoding.com/sketch -->
    <title>Shape</title>
    <desc>Created with Sketch.</desc>
    <defs></defs>
    <g id="Designs" stroke="none" stroke-width="1" fill="none" fill-rule="evenodd">
        <g id="EI---Article---Design-" transform="translate(-1331.000000, -940.000000)" fill="#7B7B7B">
            <g id="social-share-block" transform="translate(1320.000000, 860.000000)">
                <path d="M16.8086386,97 C14.5965008,97 13,95.6180302 13,93.9585867 C13,92.3315332 14.9814106,90.976555 17.1924549,91.0003076 C17.7074904,91.0067856 18.1886277,91.0877604 18.6249317,91.227037 C19.8244943,92.0519003 20.6861673,92.5172354 20.9289229,93.456543 C20.9748496,93.6476435 21,93.841983 21,94.0428005 C21,95.7033236 19.9163477,97 16.8086386,97 M16.9250745,87.9990488 C15.5646356,87.9542591 14.2713665,86.3407388 14.0367735,84.394027 C13.8021805,82.4473153 14.7144866,80.9572396 16.0749255,81.0009368 C17.4343619,81.0457265 18.7286335,82.6068102 18.9632265,84.5546143 C19.1978195,86.5013261 18.2855134,88.0438384 16.9250745,87.9990488 M20.5281594,90.3610066 C20.0084615,90.0043509 19.0160131,89.1375823 19.0160131,88.6274694 C19.0160131,88.0284572 19.1917933,87.735301 20.1187335,87.0325729 C21.0696934,86.3118532 21.7433355,85.2990357 21.7433355,84.1221778 C21.7433355,82.7188382 21.099172,81.35254 19.889455,80.9016933 L21.712765,80.9016933 L23,80 L17.248385,80 C14.6717314,80 12.2446547,81.8933443 12.2446547,84.0861947 C12.2446547,86.3277281 14.0024566,88.1364064 16.6249659,88.1364064 C16.8083887,88.1364064 16.9841689,88.1332314 17.1577654,88.1205315 C16.9885361,88.4359125 16.8651624,88.7925682 16.8651624,89.1608655 C16.8651624,89.7842192 17.2112638,90.2900988 17.6490765,90.7017874 C17.3182604,90.7017874 16.9983623,90.7113123 16.6522609,90.7113123 C13.458739,90.7113123 11,92.6819144 11,94.7276576 C11,96.7405927 13.6956601,98 16.8880903,98 C20.5281594,98 22.5403512,95.9976482 22.5403512,93.9836548 C22.5403512,92.3697084 22.0479483,91.4023989 20.5281594,90.3610066 M29,88.1387585 L26.8612415,88.1387585 L26.8612415,86 L25.1387585,86 L25.1387585,88.1387585 L23,88.1387585 L23,89.8612415 L25.1387585,89.8612415 L25.1387585,92 L26.8612415,92 L26.8612415,89.8612415 L29,89.8612415 L29,88.1387585" id="Shape"></path>
            </g>
        </g>
    </g>
</svg>