<?xml version="1.0" encoding="UTF-8"?>
<svg width="14px" height="13px" viewBox="0 0 14 13" version="1.1" xmlns="http://www.w3.org/2000/svg" xmlns:xlink="http://www.w3.org/1999/xlink">
    <!-- Generator: Sketch 45.2 (43514) - http://www.bohemiancoding.com/sketch -->
    <title>Combined Shape</title>
    <desc>Created with Sketch.</desc>
    <defs></defs>
    <g id="Designs" stroke="none" stroke-width="1" fill="none" fill-rule="evenodd">
        <g id="EI---Homepage---Design" transform="translate(-170.000000, -3929.000000)" fill="#2F3D65">
            <g id="Grid" transform="translate(0.000000, 2368.000000)">
                <g id="lower-filter" transform="translate(140.000000, 1541.000000)">
                    <g id="newer">
                        <path d="M38.2,24.0349797 L38.2,31.8840017 C38.2,32.5003506 37.6673622,33 37,33 C36.3372583,33 35.8,32.503368 35.8,31.8840017 L35.8,24.0349797 L33.0485281,26.7447626 C32.579899,27.2062913 31.820101,27.2062913 31.3514719,26.7447626 C30.8828427,26.2832339 30.8828427,25.534948 31.3514719,25.0734193 L36.1514719,20.3461465 C36.620101,19.8846178 37.379899,19.8846178 37.8485281,20.3461465 L42.6485281,25.0734193 C43.1171573,25.534948 43.1171573,26.2832339 42.6485281,26.7447626 C42.179899,27.2062913 41.420101,27.2062913 40.9514719,26.7447626 L38.2,24.0349797 Z" id="Combined-Shape" transform="translate(37.000000, 26.500000) scale(-1, 1) rotate(90.000000) translate(-37.000000, -26.500000) "></path>
                    </g>
                </g>
            </g>
        </g>
    </g>
</svg>