<?xml version="1.0" encoding="UTF-8"?>
<svg width="16px" height="16px" viewBox="0 0 16 16" version="1.1" xmlns="http://www.w3.org/2000/svg" xmlns:xlink="http://www.w3.org/1999/xlink">
    <!-- Generator: Sketch 45.2 (43514) - http://www.bohemiancoding.com/sketch -->
    <title>Shape</title>
    <desc>Created with Sketch.</desc>
    <defs></defs>
    <g id="Designs" stroke="none" stroke-width="1" fill="none" fill-rule="evenodd">
        <g id="EI---Article---Design-" transform="translate(-1332.000000, -975.000000)" fill="#7B7B7B">
            <g id="social-share-block" transform="translate(1320.000000, 860.000000)">
                <path d="M12,120 L15,120 L15,131 L12,131 L12,120 Z M13.9900596,119 L13.9662028,119 C12.7733598,119 12,118.118718 12,117.002717 C12,115.863896 12.7962227,115 14.0129225,115 C15.2286282,115 15.9761431,115.861722 16,116.999457 C16,118.115458 15.2286282,119 13.9900596,119 L13.9900596,119 Z M28,131 L24.3212633,131 L24.3212633,125.36137 C24.3212633,123.885736 23.7458185,122.879388 22.480427,122.879388 C21.5125445,122.879388 20.9742883,123.558159 20.7237544,124.214339 C20.6298043,124.448469 20.644484,124.776046 20.644484,125.104649 L20.644484,131 L17,131 C17,131 17.0469751,121.012509 17,120.104742 L20.644484,120.104742 L20.644484,121.814507 C20.8597865,121.066934 22.0243772,120 23.8828292,120 C26.1885231,120 28,121.568055 28,124.941374 L28,131 L28,131 Z" id="Shape"></path>
            </g>
        </g>
    </g>
</svg>