<?xml version="1.0" encoding="UTF-8"?>
<svg width="8px" height="13px" viewBox="0 0 8 13" version="1.1" xmlns="http://www.w3.org/2000/svg" xmlns:xlink="http://www.w3.org/1999/xlink">
    <!-- Generator: Sketch 45.2 (43514) - http://www.bohemiancoding.com/sketch -->
    <title>noun_577313_51A7F9</title>
    <desc>Created with Sketch.</desc>
    <defs></defs>
    <g id="Designs" stroke="none" stroke-width="1" fill="none" fill-rule="evenodd">
        <g id="EI---Homepage---Design" transform="translate(-151.000000, -3257.000000)" fill-rule="nonzero" fill="#000000">
            <g id="Grid" transform="translate(0.000000, 2368.000000)">
                <g id="row" transform="translate(137.000000, 645.000000)">
                    <g id="item">
                        <g id="podcast-tag" transform="translate(4.000000, 240.000000)">
                            <g id="noun_577313_51A7F9" transform="translate(10.000000, 4.000000)">
                                <path d="M3.5,9 C4.88235294,9 6,7.82876712 6,6.38013699 L6,2.61986301 C6,1.17123288 4.88235294,0 3.5,0 C2.11764706,0 1,1.17123288 1,2.61986301 L1,6.38013699 C1,7.82876712 2.11764706,9 3.5,9 Z M2,3.06349206 C2,1.92063492 2.89230769,1 4,1 C5.10769231,1 6,1.92063492 6,3.06349206 L6,6.93650794 C6,8.07936508 5.10769231,9 4,9 C2.89230769,9 2,8.07936508 2,6.93650794 L2,3.06349206 Z" id="Shape"></path>
                                <path d="M8,6.34313725 C8,6.17156863 7.84,6 7.68,6 C7.52,6 7.36,6.17156863 7.36,6.34313725 C7.36,8.33333333 5.856,9.94607843 4,9.94607843 C2.144,9.94607843 0.64,8.33333333 0.64,6.34313725 C0.64,6.17156863 0.48,6 0.32,6 C0.16,6 0,6.17156863 0,6.34313725 C0,8.60784314 1.632,10.4607843 3.68,10.6323529 L3.68,12.3137255 L1.6,12.3137255 C1.44,12.3137255 1.28,12.4509804 1.28,12.6568627 C1.28,12.8627451 1.44,13 1.6,13 L6.4,13 C6.56,13 6.72,12.8627451 6.72,12.6568627 C6.72,12.4509804 6.56,12.3137255 6.4,12.3137255 L4.32,12.3137255 L4.32,10.6323529 C6.368,10.4607843 8,8.60784314 8,6.34313725 Z" id="Shape"></path>
                                <path d="M3.33333333,5 L5.66666667,5 C5.86666667,5 6,4.8 6,4.5 C6,4.2 5.86666667,4 5.66666667,4 L3.33333333,4 C3.13333333,4 3,4.2 3,4.5 C3,4.75 3.16666667,5 3.33333333,5 Z" id="Shape"></path>
                                <path d="M3.33333333,7 L5.66666667,7 C5.86666667,7 6,6.8 6,6.5 C6,6.2 5.86666667,6 5.66666667,6 L3.33333333,6 C3.13333333,6 3,6.2 3,6.5 C3,6.75 3.16666667,7 3.33333333,7 Z" id="Shape"></path>
                                <path d="M3.33333333,4 L5.66666667,4 C5.86666667,4 6,3.8 6,3.5 C6,3.2 5.86666667,3 5.66666667,3 L3.33333333,3 C3.13333333,3 3,3.2 3,3.5 C3,3.75 3.16666667,4 3.33333333,4 Z" id="Shape"></path>
                            </g>
                        </g>
                    </g>
                </g>
            </g>
        </g>
    </g>
</svg>