<?xml version="1.0" encoding="UTF-8"?>
<svg width="14px" height="13px" viewBox="0 0 14 13" version="1.1" xmlns="http://www.w3.org/2000/svg" xmlns:xlink="http://www.w3.org/1999/xlink">
    <!-- Generator: Sketch 45.2 (43514) - http://www.bohemiancoding.com/sketch -->
    <title>Combined Shape</title>
    <desc>Created with Sketch.</desc>
    <defs></defs>
    <g id="Designs" stroke="none" stroke-width="1" fill="none" fill-rule="evenodd">
        <g id="EI---Homepage---Design" transform="translate(-1255.000000, -3929.000000)" fill="#B4B4B4">
            <g id="Grid" transform="translate(0.000000, 2368.000000)">
                <g id="lower-filter" transform="translate(140.000000, 1541.000000)">
                    <g id="older" transform="translate(1026.000000, 0.000000)">
                        <path d="M97.2,24.0349797 L97.2,31.8840017 C97.2,32.5003506 96.6673622,33 96,33 C95.3372583,33 94.8,32.503368 94.8,31.8840017 L94.8,24.0349797 L92.0485281,26.7447626 C91.579899,27.2062913 90.820101,27.2062913 90.3514719,26.7447626 C89.8828427,26.2832339 89.8828427,25.534948 90.3514719,25.0734193 L95.1514719,20.3461465 C95.620101,19.8846178 96.379899,19.8846178 96.8485281,20.3461465 L101.648528,25.0734193 C102.117157,25.534948 102.117157,26.2832339 101.648528,26.7447626 C101.179899,27.2062913 100.420101,27.2062913 99.9514719,26.7447626 L97.2,24.0349797 Z" id="Combined-Shape" transform="translate(96.000000, 26.500000) rotate(90.000000) translate(-96.000000, -26.500000) "></path>
                    </g>
                </g>
            </g>
        </g>
    </g>
</svg>