<?xml version="1.0" encoding="UTF-8"?>
<svg width="22px" height="22px" viewBox="0 0 22 22" version="1.1" xmlns="http://www.w3.org/2000/svg" xmlns:xlink="http://www.w3.org/1999/xlink">
    <!-- Generator: Sketch 45.2 (43514) - http://www.bohemiancoding.com/sketch -->
    <title>Combined Shape</title>
    <desc>Created with Sketch.</desc>
    <defs></defs>
    <g id="Symbols" stroke="none" stroke-width="1" fill="none" fill-rule="evenodd">
        <g id="Masthead" transform="translate(-1368.000000, -29.000000)" fill="#FFF477">
            <g id="search" transform="translate(1120.000000, 25.000000)">
                <path d="M263.296361,17.605669 L269.651399,23.9618925 C270.116032,24.4266121 270.117613,25.1784905 269.647662,25.6485287 C269.180965,26.1153127 268.426732,26.1177453 267.96134,25.6522666 L261.606211,19.2959526 C260.184526,20.3658487 258.41632,21 256.5,21 C251.80558,21 248,17.1944204 248,12.5 C248,7.80557963 251.80558,4 256.5,4 C261.19442,4 265,7.80557963 265,12.5 C265,14.4160762 264.36601,16.1840761 263.296361,17.605669 Z M256.5,19 C260.089851,19 263,16.0898509 263,12.5 C263,8.91014913 260.089851,6 256.5,6 C252.910149,6 250,8.91014913 250,12.5 C250,16.0898509 252.910149,19 256.5,19 Z" id="Combined-Shape"></path>
            </g>
        </g>
    </g>
</svg>