<?xml version="1.0" encoding="UTF-8"?>
<svg width="45px" height="32px" viewBox="0 0 45 32" version="1.1" xmlns="http://www.w3.org/2000/svg" xmlns:xlink="http://www.w3.org/1999/xlink">
    <!-- Generator: Sketch 45.2 (43514) - http://www.bohemiancoding.com/sketch -->
    <title></title>
    <desc>Created with Sketch.</desc>
    <defs></defs>
    <g id="Symbols" stroke="none" stroke-width="1" fill="none" fill-rule="evenodd">
        <g id="Footer" transform="translate(-1254.000000, -30.000000)" fill="#AAB4D1">
            <path d="M1271.85461,51.8920635 L1284.00795,45.5428571 L1271.85461,39.1174603 L1271.85461,51.8920635 Z M1276.5,30 C1279.31236,30 1282.02842,30.0380949 1284.64826,30.1142857 C1287.26811,30.1904766 1289.18902,30.270899 1290.41105,30.3555556 L1292.2441,30.4571429 C1292.26084,30.4571429 1292.40313,30.4698411 1292.67097,30.4952381 C1292.93882,30.520635 1293.13133,30.5460316 1293.24851,30.5714286 C1293.36569,30.5968255 1293.56238,30.6349204 1293.8386,30.6857143 C1294.11481,30.7365082 1294.35336,30.8042324 1294.55424,30.8888889 C1294.75512,30.9735454 1294.98948,31.0835972 1295.25732,31.2190476 C1295.52517,31.354498 1295.78464,31.5195757 1296.03574,31.7142857 C1296.28684,31.9089957 1296.52957,32.1333321 1296.76394,32.3873016 C1296.86438,32.4888894 1296.99411,32.6455016 1297.15314,32.8571429 C1297.31218,33.0687841 1297.55491,33.5640173 1297.88134,34.3428571 C1298.20777,35.121697 1298.42958,35.9767149 1298.54676,36.9079365 C1298.68068,37.9915398 1298.78531,39.1470838 1298.86064,40.3746032 C1298.93597,41.6021225 1298.982,42.5629595 1298.99874,43.2571429 L1298.99874,47.7269841 C1299.01548,50.1820229 1298.86482,52.6370248 1298.54676,55.0920635 C1298.42958,56.0232851 1298.22033,56.8656047 1297.91901,57.6190476 C1297.61768,58.3724905 1297.34984,58.8931203 1297.11548,59.1809524 L1296.76394,59.6126984 C1296.52957,59.8666679 1296.28684,60.0910043 1296.03574,60.2857143 C1295.78464,60.4804243 1295.52517,60.6412692 1295.25732,60.768254 C1294.98948,60.8952387 1294.75512,61.0010578 1294.55424,61.0857143 C1294.35336,61.1703708 1294.11481,61.238095 1293.8386,61.2888889 C1293.56238,61.3396828 1293.3615,61.3777777 1293.23595,61.4031746 C1293.1104,61.4285716 1292.91789,61.4539681 1292.65842,61.4793651 C1292.39894,61.504762 1292.26084,61.5174603 1292.2441,61.5174603 C1288.0423,61.839155 1282.79432,62 1276.5,62 C1273.03477,61.9661374 1270.02576,61.9111115 1267.47288,61.8349206 C1264.92,61.7587298 1263.24182,61.6952383 1262.43828,61.6444444 L1261.20788,61.5428571 L1260.30392,61.4412698 C1259.70127,61.3566133 1259.24511,61.2719581 1258.93541,61.1873016 C1258.62572,61.1026451 1258.19885,60.9248691 1257.65479,60.6539683 C1257.11073,60.3830674 1256.63783,60.035981 1256.23606,59.6126984 C1256.13562,59.5111106 1256.00589,59.3544984 1255.84686,59.1428571 C1255.68782,58.9312159 1255.44509,58.4359827 1255.11866,57.6571429 C1254.79223,56.878303 1254.57042,56.0232851 1254.45324,55.0920635 C1254.31932,54.0084602 1254.21469,52.8529162 1254.13936,51.6253968 C1254.06403,50.3978775 1254.018,49.4370405 1254.00126,48.7428571 L1254.00126,44.2730159 C1253.98452,41.8179771 1254.13518,39.3629752 1254.45324,36.9079365 C1254.57042,35.9767149 1254.77967,35.1343953 1255.08099,34.3809524 C1255.38232,33.6275095 1255.65016,33.1068797 1255.88452,32.8190476 L1256.23606,32.3873016 C1256.47043,32.1333321 1256.71316,31.9089957 1256.96426,31.7142857 C1257.21536,31.5195757 1257.47483,31.354498 1257.74268,31.2190476 C1258.01052,31.0835972 1258.24488,30.9735454 1258.44576,30.8888889 C1258.64664,30.8042324 1258.88519,30.7365082 1259.1614,30.6857143 C1259.43762,30.6349204 1259.63431,30.5968255 1259.75149,30.5714286 C1259.86867,30.5460316 1260.06118,30.520635 1260.32903,30.4952381 C1260.59687,30.4698411 1260.73916,30.4571429 1260.7559,30.4571429 C1264.9577,30.1523794 1270.20568,30 1276.5,30 Z" id=""></path>
        </g>
    </g>
</svg>